# xmcd CD database file
#
# Track frame offsets:
#	150
#	18743
#	36235
#	50986
#	67429
#	92222
#	110583
#	127722
#	149973
#	192760
#	208791
#	223719
#
# Disc length: 3199 seconds
#
# Revision: 0
# Processed by: cddbd v1.5.1PL0 Copyright (c) Steve Scherf et al.
# Submitted via: CDex 1.51
#
DISCID=cb0c7d0c
DTITLE=rick derringer - blues deluxe
DYEAR=1998
DGENRE=Blues
TTITLE0=let the good times roll
TTITLE1=runnin`blue
TTITLE2=blues power
TTITLE3=key to the highway
TTITLE4=blues deluxe
TTITLE5=hide away 1962
TTITLE6=killing floor
TTITLE7=funky music
TTITLE8=something inside of me
TTITLE9=still alive and well
TTITLE10=bright lights, big city
TTITLE11=checking up on my baby
EXTD=YEAR: 1998
EXTT0=
EXTT1=
EXTT2=
EXTT3=
EXTT4=
EXTT5=
EXTT6=
EXTT7=
EXTT8=
EXTT9=
EXTT10=
EXTT11=
PLAYORDER=
